# xmcd
#
# Track frame offsets: 
#        150
#        11833
#        21739
#        31665
#        41357
#        52687
#        62202
#        71027
#        80590
#        91020
#        103375
#        115633
#        125314
#        134787
#        147840
#        159168
#        169472
#        179288
#        189090
#        200029
#        211191
#        218592
#        229828
#        238166
#        249208
#        259880
#
# Disc length: 3586 seconds
#
# Revision: 0
# Processed by: cddbd v1.5.2PL0 Copyright (c) Steve Scherf et al.
# Submitted via: ExactAudioCopy v1.1
#
DISCID=6e0e001a
DTITLE=George Jones - Big Box Of George Jones_CD2
DYEAR=2015
DGENRE=Country
TTITLE0=My Lord Has Called Me
TTITLE1=Nobody's Lonesome For Me
TTITLE2=Seasons Of My Heart
TTITLE3=If You Want To Wear A Crown
TTITLE4=Imitation Of Love
TTITLE5=Why Don't You Love Me (Like You Used To Do)
TTITLE6=If I Don't Love You (Grits Ain't Groceries)
TTITLE7=Boar Of Life
TTITLE8=Don't Do This To Me
TTITLE9=Sometimes You Just Can't Win
TTITLE10=Faded Love
TTITLE11=Did I Ever Tell You (With Margie Singleton)
TTITLE12=Still Hurtin'
TTITLE13=Color Of The Blues
TTITLE14=Don't Let The Stars Get In Your Eyes
TTITLE15=I Heard You Crying In Your Sleep
TTITLE16=You Are The One (Leon Payne)
TTITLE17=If You've Got The Money (I've Got The Time)
TTITLE18=When Two Worlds Collide
TTITLE19=A House Without Love
TTITLE20=Any Old Time
TTITLE21=Life To Go
TTITLE22=Yes I Know Why
TTITLE23=Silver Dew You On The Bluegrass Tonight
TTITLE24=No Money In This Deal
TTITLE25=Geronimo
EXTD=
EXTT0=
EXTT1=
EXTT2=
EXTT3=
EXTT4=
EXTT5=
EXTT6=
EXTT7=
EXTT8=
EXTT9=
EXTT10=
EXTT11=
EXTT12=
EXTT13=
EXTT14=
EXTT15=
EXTT16=
EXTT17=
EXTT18=
EXTT19=
EXTT20=
EXTT21=
EXTT22=
EXTT23=
EXTT24=
EXTT25=
PLAYORDER=
